<?xml version="1.0" encoding="iso-8859-1"?>
<!-- Generator: Adobe Illustrator 23.1.1, SVG Export Plug-In . SVG Version: 6.00 Build 0)  -->
<svg version="1.1" id="_x31_-outline-expand" xmlns="http://www.w3.org/2000/svg" xmlns:xlink="http://www.w3.org/1999/xlink"
	 x="0px" y="0px" viewBox="0 0 64 64" style="enable-background:new 0 0 64 64;" xml:space="preserve">
<path style="fill:#E0C494;" d="M17,30h2v-8h-2c-2.209,0-4,1.791-4,4C13,28.209,14.791,30,17,30"/>
<path style="fill:#E0C494;" d="M57,22h-2v8h2c2.209,0,4-1.791,4-4C61,23.791,59.209,22,57,22"/>
<path style="fill:#62C4C3;" d="M62,55.574c-1.238-0.896-2.654-1.553-4.19-1.874l-9.63-2.03c-0.26-0.05-0.5-0.13-0.74-0.23h-0.01
	H26.57c-0.24,0.1-0.49,0.18-0.75,0.23l-9.63,2.03C12.36,54.5,9.24,57.28,8,61v1h54V55.574z"/>
<path style="fill:#F2DAAE;" d="M47.43,51.44L37,57l-10.429-5.56C28.02,50.809,29,49.379,29,47.75v-2.63h16v2.63
	C45,49.379,45.981,50.809,47.43,51.44"/>
<rect x="43" y="57" style="fill:#42A5B2;" width="13" height="4"/>
<path style="fill:#62C4C3;" d="M45,45.12c-2.41,1.2-5.12,1.88-8,1.88c-2.88,0-5.59-0.68-8-1.88c-5.36-2.66-9.2-7.91-9.89-14.12
	h35.78C54.2,37.21,50.36,42.46,45,45.12"/>
<path style="fill:#EFBC2E;" d="M55,21v1c-3.31,0-6-2.69-6-6v-1H21.21c-0.33,0-0.67-0.03-0.99-0.08c-0.05-0.01-0.1-0.01-0.14-0.02
	c-2.54-0.46-4.65-2.42-5.02-5.03c-0.48-3.42,1.93-6.38,5.14-6.81C20.63,4.19,21.72,5,23,5h16C47.84,5,55,12.16,55,21"/>
<path style="fill:#F2DAAE;" d="M55,22v7c0,0.68-0.04,1.34-0.11,2H19.11C19.04,30.34,19,29.68,19,29v-8c0-2.15,0.39-4.19,1.08-6.1
	c0.04,0.01,0.09,0.01,0.14,0.02c0.32,0.05,0.65,0.08,0.99,0.08H49v1C49,19.31,51.69,22,55,22"/>
<path style="fill:#F2DAAE;" d="M3,38v24h16v-8l4-7v-3c0-1.104-0.896-2-2-2h-2V28c0-1.104-0.896-2-2-2c-1.104,0-2,0.896-2,2v10
	c0-1.104-0.896-2-2-2c-1.104,0-2,0.896-2,2c0-1.104-0.896-2-2-2c-1.104,0-2,0.896-2,2c0-1.104-0.896-2-2-2C3.896,36,3,36.896,3,38"
	/>
<path style="fill:#E0C494;" d="M13,50L13,50c0-2.209,1.791-4,4-4h3h-1c-2.209,0-4-1.791-4-4h6c1.104,0,2,0.896,2,2v3l-4,7h-2
	C14.791,54,13,52.209,13,50"/>
<path style="fill:#E0C494;" d="M13,44L13,44c1.104,0,2-0.896,2-2v-4c0-1.104-0.896-2-2-2c-1.104,0-2,0.896-2,2v4
	C11,43.104,11.896,44,13,44"/>
<path style="fill:#E0C494;" d="M9,44L9,44c1.104,0,2-0.896,2-2v-4c0-1.104-0.896-2-2-2c-1.104,0-2,0.896-2,2v4
	C7,43.104,7.896,44,9,44"/>
<path style="fill:#E0C494;" d="M5,44L5,44c1.104,0,2-0.896,2-2v-4c0-1.104-0.896-2-2-2c-1.104,0-2,0.896-2,2v4
	C3,43.104,3.896,44,5,44"/>
<path style="fill:#3A4249;" d="M30,28c1.104,0,2-0.896,2-2c0-1.104-0.896-2-2-2c-1.104,0-2,0.896-2,2C28,27.104,28.896,28,30,28"/>
<path style="fill:#3A4249;" d="M44,28c1.104,0,2-0.896,2-2c0-1.104-0.896-2-2-2c-1.104,0-2,0.896-2,2C42,27.104,42.896,28,44,28"/>
<path style="fill:#3A4249;" d="M58.015,52.721l-9.63-2.03C47.003,50.4,46,49.163,46,47.75v-2.023
	c5.391-2.913,9.222-8.355,9.892-14.727H57c2.757,0,5-2.244,5-5c0-2.757-2.243-5-5-5h-1c0-9.374-7.626-17-17-17H23
	c-0.834,0-1.565-0.508-1.863-1.295c-0.165-0.435-0.61-0.695-1.067-0.637c-1.834,0.244-3.53,1.232-4.652,2.711
	c-1.133,1.493-1.612,3.351-1.347,5.232c0.368,2.619,2.263,4.74,4.745,5.586C18.285,17.372,18,19.182,18,21h-1c-2.757,0-5,2.243-5,5
	c0,1.323,0.517,2.578,1.476,3.55c0.17,0.164,0.346,0.312,0.524,0.445v5.189C13.685,35.072,13.352,35,13,35
	c-0.772,0-1.468,0.3-2,0.78C10.467,35.3,9.771,35,9,35c-0.772,0-1.468,0.3-2,0.78C6.467,35.3,5.771,35,5,35c-1.655,0-3,1.345-3,3v23
	c0,0.552,0.447,1,1,1h16c0.552,0,1-0.448,1-1v-6.735l0.222-0.388l5.804-1.229c0.15-0.031,0.29-0.088,0.435-0.133L36,57.6V62h2v-4.4
	l9.539-5.085c0.144,0.045,0.284,0.102,0.434,0.133l9.632,2.03c1.369,0.286,2.685,0.87,3.805,1.689l1.18-1.615
	C61.242,53.766,59.66,53.064,58.015,52.721 M45.527,51.321L37,55.867l-8.528-4.546C29.414,50.401,30,49.13,30,47.75v-1.104
	C32.169,47.51,34.526,48,37,48c2.473,0,4.831-0.49,7-1.354v1.104C44,49.13,44.586,50.401,45.527,51.321 M37,46
	c-8.349,0-15.296-6.055-16.719-14h33.437C52.296,39.945,45.348,46,37,46 M16,38V28c0-0.552,0.448-1,1-1c0.551,0,1,0.448,1,1v1v12h-2
	V38z M20,37.434c0.779,1.564,1.765,3.002,2.926,4.285C22.404,41.277,21.737,41,21,41h-1V37.434z M57,23c1.654,0,3,1.345,3,3
	c0,1.654-1.346,3-3,3h-1v-6H57z M16.051,9.732c-0.19-1.349,0.151-2.679,0.96-3.744c0.673-0.888,1.598-1.512,2.65-1.801
	C20.39,5.296,21.645,6,23,6h16c8.237,0,14.945,6.673,15,14.899c-2.28-0.465-4-2.484-4-4.899v-1c0-0.553-0.448-1-1-1H21.211
	C18.612,14,16.394,12.165,16.051,9.732 M21.211,16H48c0,3.518,2.613,6.431,6,6.92V29c0,0.337-0.032,0.667-0.051,1H20.051
	C20.031,29.667,20,29.337,20,29v-1v-7c0-1.687,0.276-3.371,0.79-5.019C20.929,15.989,21.069,16,21.211,16 M17,23h1v2.184
	C17.685,25.072,17.352,25,17,25c-1.303,0-2.403,0.838-2.817,2.001C14.07,26.681,14,26.345,14,26C14,24.345,15.345,23,17,23 M13,37
	c0.551,0,1,0.448,1,1v4c0,0.551-0.449,1-1,1c-0.552,0-1-0.449-1-1v-4C12,37.448,12.448,37,13,37 M9,37c0.551,0,1,0.448,1,1v4
	c0,0.551-0.449,1-1,1c-0.552,0-1-0.449-1-1v-4C8,37.448,8.448,37,9,37 M4,38c0-0.552,0.448-1,1-1c0.551,0,1,0.448,1,1v4
	c0,0.551-0.449,1-1,1c-0.552,0-1-0.449-1-1V38z M18.132,53.504C18.046,53.655,18,53.826,18,54v6H4V44.815
	C4.314,44.927,4.647,45,5,45c0.771,0,1.467-0.301,2-0.781C7.532,44.699,8.228,45,9,45c0.771,0,1.467-0.301,2-0.781
	C11.532,44.699,12.228,45,13,45c0.624,0,1.204-0.193,1.684-0.52C15.55,45.977,17.149,47,19,47h1v-2h-1c-1.304,0-2.416-0.836-2.829-2
	H21c0.551,0,1,0.448,1,1v2.734L18.132,53.504z M25.613,50.691l-4.062,0.859l2.317-4.054C23.954,47.344,24,47.173,24,47v-3
	c0-0.609-0.185-1.173-0.496-1.646c1.319,1.333,2.832,2.474,4.496,3.373v2.023C28,49.163,26.997,50.4,25.613,50.691"/>
<path style="fill:#3A4249;" d="M56,56H43c-0.553,0-1,0.447-1,1v4c0,0.552,0.447,1,1,1h13c0.553,0,1-0.448,1-1v-4
	C57,56.447,56.553,56,56,56 M55,60H44v-2h11V60z"/>
</svg>
